<svg width="19" height="19" viewBox="0 0 19 19" fill="none" xmlns="http://www.w3.org/2000/svg">
<path d="M17.4896 4.4375V8.9375C17.4896 9.16128 17.4007 9.37589 17.2424 9.53412C17.0842 9.69235 16.8696 9.78125 16.6458 9.78125C16.422 9.78125 16.2074 9.69235 16.0492 9.53412C15.891 9.37589 15.8021 9.16128 15.8021 8.9375V6.47656L10.4935 11.7852C10.4151 11.8638 10.3219 11.9262 10.2194 11.9688C10.1168 12.0114 10.0069 12.0333 9.89581 12.0333C9.78476 12.0333 9.6748 12.0114 9.57224 11.9688C9.46969 11.9262 9.37654 11.8638 9.29815 11.7852L7.08331 9.57031L2.61847 14.0352C2.45924 14.1923 2.24453 14.2804 2.02081 14.2804C1.79709 14.2804 1.58237 14.1923 1.42315 14.0352C1.34449 13.9568 1.28208 13.8636 1.23949 13.7611C1.19691 13.6585 1.17499 13.5485 1.17499 13.4375C1.17499 13.3265 1.19691 13.2165 1.23949 13.1139C1.28208 13.0114 1.34449 12.9182 1.42315 12.8398L6.48565 7.77734C6.56404 7.69868 6.65719 7.63627 6.75974 7.59369C6.8623 7.5511 6.97226 7.52918 7.08331 7.52918C7.19436 7.52918 7.30432 7.5511 7.40688 7.59369C7.50944 7.63627 7.60258 7.69868 7.68097 7.77734L9.89581 9.99219L14.6067 5.28125H12.1458C11.922 5.28125 11.7074 5.19236 11.5492 5.03412C11.391 4.87589 11.3021 4.66128 11.3021 4.4375C11.3021 4.21372 11.391 3.99911 11.5492 3.84088C11.7074 3.68264 11.922 3.59375 12.1458 3.59375H16.6458C16.8696 3.59375 17.0842 3.68264 17.2424 3.84088C17.4007 3.99911 17.4896 4.21372 17.4896 4.4375Z" fill="url(#paint0_linear_1_3198)"/>
<defs>
<linearGradient id="paint0_linear_1_3198" x1="15.3737" y1="15.9224" x2="-1.13208" y2="14.3194" gradientUnits="userSpaceOnUse">
<stop stop-color="#35C3F3"/>
<stop offset="0.264988" stop-color="#8B9FE8"/>
<stop offset="0.525409" stop-color="#E681D8"/>
<stop offset="0.744796" stop-color="#FFA9A4"/>
<stop offset="1" stop-color="#FED2CE"/>
<stop offset="1" stop-color="#FED2CE"/>
</linearGradient>
</defs>
</svg>
